<svg xmlns="http://www.w3.org/2000/svg" viewBox="0 0 64 64" id="project">
  <path fill="#222" d="M12.566 54.47a1.5 1.5 0 0 1-1.317-.783l-3.868-7.109a1.5 1.5 0 0 1-.182-.717V15.5A1.5 1.5 0 0 1 8.7 14h7.735a1.5 1.5 0 0 1 1.5 1.5v30.361a1.5 1.5 0 0 1-.183.717l-3.867 7.109a1.5 1.5 0 0 1-1.319.783ZM10.2 45.479l2.367 4.352 2.368-4.352V17H10.2Z"></path>
  <path fill="#222" d="M16.434 22.868H8.7a1.5 1.5 0 0 1 0-3h7.735a1.5 1.5 0 0 1 0 3zM55.3 54.47H22.807a1.5 1.5 0 0 1-1.5-1.5V11.03a1.5 1.5 0 0 1 1.5-1.5h22.132a1.5 1.5 0 0 1 1.159.548l10.361 12.6a1.5 1.5 0 0 1 .342.952v29.34a1.5 1.5 0 0 1-1.501 1.5zm-30.994-3H53.8v-27.3l-9.57-11.64H24.307z"></path>
  <path fill="#222" d="M44.938 25.13a1.5 1.5 0 0 1-1.5-1.5v-12.6a1.5 1.5 0 0 1 3 0v12.6a1.5 1.5 0 0 1-1.5 1.5Z"></path>
  <path fill="#222" d="M55.3 25.13H44.938a1.5 1.5 0 0 1 0-3H55.3a1.5 1.5 0 0 1 0 3Z"></path>
</svg>