<svg xmlns="http://www.w3.org/2000/svg" viewBox="0 0 47.49 47.48" id="project">
  <rect width="8.68" height="5.83" y="9.78" fill="#f72585" rx="1.98"></rect>
  <path fill="#3f37c9" d="M0 21.55v21.47a2 2 0 0 0 .57 1.37l2.7 2.69a1.53 1.53 0 0 0 2.15 0l2.69-2.69a1.91 1.91 0 0 0 .57-1.37V21.55a1.94 1.94 0 0 0-2-1.94H1.95A1.94 1.94 0 0 0 0 21.55Z"></path>
  <path fill="#4361ee" d="M47.49 7.82v37a2.73 2.73 0 0 1-2.78 2.68H18.13a2.73 2.73 0 0 1-2.78-2.68V2.7A2.73 2.73 0 0 1 18.13.02h21.24v6.53a1.17 1.17 0 0 0 1.12 1.22Z"></path>
  <path fill="#48cae4" d="m41.99 0 5.5 5.3h-4.85a.61.61 0 0 1-.61-.61Z"></path>
</svg>